SplineFontDB: 3.2
FontName: Crisa-Light
FullName: Crisa Light
FamilyName: Crisa
Weight: Light
Copyright: Copyright (c) 2011-2015 by tyPoland Lukasz Dziedzic (http://www.typoland.com/) with Reserved Font Name "Lato". Licensed under the SIL Open Font License, Version 1.1 (http://scripts.sil.org/OFL). \n\nModified into Crisa for Lojban/Zbalermorna in 2019 by Jack Humbert.
Version: 2.015; 2015-08-06; http://www.latofonts.com/
ItalicAngle: 0
UnderlinePosition: -252
UnderlineWidth: 29
Ascent: 750
Descent: 250
InvalidEm: 0
sfntRevision: 0x000203d7
LayerCount: 2
Layer: 0 0 "Back" 1
Layer: 1 0 "Fore" 0
XUID: [1021 647 -312734098 6428]
StyleMap: 0x0040
FSType: 0
OS2Version: 3
OS2_WeightWidthSlopeOnly: 0
OS2_UseTypoMetrics: 0
CreationTime: 1438840825
ModificationTime: 1589916343
PfmFamily: 17
TTFWeight: 300
TTFWidth: 5
LineGap: 0
VLineGap: 0
Panose: 2 15 5 2 2 2 4 3 2 3
OS2TypoAscent: 796
OS2TypoAOffset: 0
OS2TypoDescent: -193
OS2TypoDOffset: 0
OS2TypoLinegap: 198
OS2WinAscent: 976
OS2WinAOffset: 0
OS2WinDescent: 211
OS2WinDOffset: 0
HheadAscent: 976
HheadAOffset: 0
HheadDescent: -211
HheadDOffset: 0
OS2SubXSize: 692
OS2SubYSize: 643
OS2SubXOff: 0
OS2SubYOff: 138
OS2SupXSize: 692
OS2SupYSize: 643
OS2SupXOff: 0
OS2SupYOff: 472
OS2StrikeYSize: 29
OS2StrikeYPos: 260
OS2CapHeight: 699
OS2XHeight: 492
OS2Vendor: 'tyPL'
OS2CodePages: 2000019f.00000000
OS2UnicodeRanges: e10002ff.5000ecff.00000021.00000000
Lookup: 4 0 1 "zlmFF" { "zlmFF subtable"  } ['liga' ('latn' <'dflt' > 'DFLT' <'dflt' > ) ]
Lookup: 4 0 1 "zlmSFF" { "zlmSFF subtable"  } ['liga' ('latn' <'dflt' > 'DFLT' <'dflt' > ) ]
Lookup: 4 0 1 "zlmSF" { "zlmSF subtable"  } ['liga' ('latn' <'dflt' > 'DFLT' <'dflt' > ) ]

StartChar: exclam
Encoding: 1 33 1
Width: 251
VWidth: 988
Flags: W
HStem: -7 91<85.5901 163.686>
VStem: 79 92<-0.129626 76.7277> 110 32<241 374.39>
LayerCount: 2
Fore
SplineSet
110 241 m 1xa0
 108.167721599 273.981011209 105 302.26191412 105 334 c 0
 105 348 104 362 104 375 c 0
 104 388 103 402 103 417 c 2
 103 699 l 1
 149 699 l 1
 149 375 l 2
 149 362 148 348 148 334 c 0
 148 302.983844188 143.849089493 274.283610867 142 241 c 1
 110 241 l 1xa0
125 -7 m 0
 99.2961851952 -7 79 12.2649466315 79 38 c 0
 79 64.0229757872 98.9623034357 84 125 84 c 0
 150.135777641 84 171 63.3027881563 171 38 c 0xc0
 171 12.1533020836 151.038555261 -7 125 -7 c 0
EndSplineSet
EndChar

StartChar: question
Encoding: 13 63 2
Width: 427
VWidth: 988
Flags: W
HStem: -7 91<152.59 230.835> 669 38<124.066 276.853>
VStem: 146 92<-0.129626 76.7397> 177 32<241 322> 333 45<481.6 622.674>
LayerCount: 2
Fore
SplineSet
46 639 m 1xd8
 83.8421184455 676.842118445 134.089102892 707 209 707 c 0
 284.363822311 707 339.473962997 671.777189229 364 620 c 0
 373 601 378 581 378 558 c 0
 378 485.002790383 340.614109226 439.438649447 298 409 c 0
 273.022193258 391.15870947 246.80739251 373.158316573 228 352 c 0
 220 343 216 333 215 322 c 2
 209 241 l 1
 177 241 l 1
 174 325 l 1
 171.641957834 358.012590318 194.587204927 375.822670772 214 392 c 0
 238.766027573 412.638356311 268.563063098 430.693318356 291 455 c 0
 313.99343702 479.909556772 333 509.244838096 333 556 c 0
 333 613.331407544 297.454574898 646.515141701 254 661 c 0
 239 666 222 669 205 669 c 0
 152.050720061 669 108.627765989 647.627765989 83 622 c 0
 77 616 72 613 70 613 c 0
 65 613 61 615 59 619 c 2
 46 639 l 1xd8
192 -7 m 0
 166.296185195 -7 146 12.2649466315 146 38 c 0
 146 64.0229757872 165.962303436 84 192 84 c 0
 217.734903186 84 238 63.3511900723 238 38 c 0xe8
 238 23.3204749358 231.698044296 13.698044296 224 6 c 0
 216.469775778 -1.53022422179 206.619562842 -7 192 -7 c 0
EndSplineSet
EndChar

StartChar: semicolon
Encoding: 10 59 3
Width: 248
VWidth: 988
Flags: W
HStem: -2 86<85.872 136.335> 387 91<84.5901 162.686>
VStem: 78 92<5.38915 76.2843 393.87 470.728>
LayerCount: 2
Fore
SplineSet
124 387 m 0
 98.2961851952 387 78 406.264946631 78 432 c 0
 78 458.022975787 97.9623034357 478 124 478 c 0
 149.135777641 478 170 457.302788156 170 432 c 0
 170 406.153302084 150.038555261 387 124 387 c 0
93 -125 m 1
 90.8621592981 -122.862159298 83 -117.214527 83 -114 c 0
 83 -113 82 -111 82 -109 c 0
 82 -107 83 -104 86 -101 c 0
 109.085383828 -77.914616172 133.704722747 -42.8386042883 137 0 c 1
 132 -2 127 -2 122 -2 c 0
 96.7759178858 -2 81 16.1436561476 81 42 c 0
 81 67.415533323 98.3121466094 84 124 84 c 0
 152.312454469 84 168 60.0874555901 168 31 c 0
 168 -21.2510059909 146.265523839 -57.8386877875 124 -90 c 0
 115 -103 104 -114 93 -125 c 1
EndSplineSet
EndChar

StartChar: colon
Encoding: 9 58 4
Width: 237
VWidth: 988
Flags: W
HStem: -7 91<79.4309 157.132> 387 91<79.4309 157.132>
VStem: 73 91<-0.335748 77.0048 393.664 471.005>
LayerCount: 2
Fore
SplineSet
118 387 m 0
 92.7865889069 387 73 406.792267325 73 432 c 0
 73 458.419128161 91.9807409188 478 118 478 c 0
 144.00709992 478 164 458.024073388 164 432 c 0
 164 405.434515042 144.932292708 387 118 387 c 0
118 -7 m 0
 92.7865889069 -7 73 12.7922673252 73 38 c 0
 73 64.4191281609 91.9807409188 84 118 84 c 0
 144.00709992 84 164 64.0240733877 164 38 c 0
 164 11.434515042 144.932292708 -7 118 -7 c 0
EndSplineSet
EndChar

StartChar: guillemotleft
Encoding: 19 171 5
Width: 392
VWidth: 988
Flags: W
DStem2: 55 260 104 271 0.536875 0.843661<17.529 221.653> 194 97 174 66 0.534838 -0.844954<-189.59 15.4968> 181 260 230 271 0.540075 0.841617<17.6536 222.191> 320 97 301 66 0.538035 -0.842922<-189.59 15.9079>
LayerCount: 2
Fore
SplineSet
320 97 m 2
 326 86 325 79 315 74 c 2
 301 66 l 1
 181 254 l 1
 181 260 l 1
 301 447 l 1
 315 439 l 2
 325 434 326 427 320 416 c 2
 230 271 l 2
 226 264 221 260 218 257 c 1
 221 255 225 250 230 243 c 2
 320 97 l 2
194 97 m 2
 200 86 199 79 189 74 c 2
 174 66 l 1
 55 254 l 1
 55 260 l 1
 174 447 l 1
 189 439 l 2
 199 434 200 427 194 416 c 2
 104 271 l 2
 100 264 95 260 92 257 c 1
 95 255 99 250 104 243 c 2
 194 97 l 2
EndSplineSet
EndChar

StartChar: guillemotright
Encoding: 20 187 6
Width: 392
VWidth: 988
Flags: W
DStem2: 92 447 73 416 0.540075 -0.841617<0 203.998> 163 243 212 254 0.538035 0.842922<-187.398 17.5628> 218 447 199 416 0.540075 -0.841617<0 204.538> 289 243 338 254 0.538035 0.842922<-187.398 18.1004>
LayerCount: 2
Fore
SplineSet
338 260 m 1
 338 254 l 1
 218 66 l 1
 204 74 l 2
 194 79 193 86 199 97 c 2
 289 243 l 2
 294 250 298 255 301 257 c 1
 298 260 293 264 289 271 c 2
 199 416 l 2
 193 427 194 434 204 439 c 2
 218 447 l 1
 338 260 l 1
212 260 m 1
 212 254 l 1
 92 66 l 1
 78 74 l 2
 68 79 67 86 73 97 c 2
 163 243 l 2
 168 250 171 255 174 257 c 1
 171 260 167 264 163 271 c 2
 73 416 l 2
 67 427 68 434 78 439 c 2
 92 447 l 1
 212 260 l 1
EndSplineSet
EndChar

StartChar: parenleft
Encoding: 7 40 7
Width: 255
VWidth: 988
Flags: W
HStem: 734 20G<152.385 212>
VStem: 54 42<132.107 490.52>
LayerCount: 2
Fore
SplineSet
191 -131 m 1
 113.800884025 -10.5693790791 54 119.65380542 54 311 c 256
 54 503.389321182 113.769257811 633.520042186 191 754 c 1
 212 741 l 2
 219.366888301 736.088741132 220.326963902 730.653927804 215 720 c 0
 144.395913606 608.79856393 96 479.036874049 96 311 c 0
 96 143.654237944 144.645939835 13.8076447598 215 -97 c 0
 220.056330196 -107.112660391 219.44035476 -113.039763493 212 -118 c 2
 191 -131 l 1
EndSplineSet
EndChar

StartChar: parenright
Encoding: 8 41 8
Width: 255
VWidth: 988
Flags: W
HStem: 734 20G<44 102.937>
VStem: 159 42<131.848 490.654>
LayerCount: 2
Fore
SplineSet
64 754 m 1
 141.874053309 632.516476838 201 504.605666801 201 311 c 256
 201 118.424097387 141.37461513 -10.2956003969 64 -131 c 1
 44 -118 l 2
 36.1408425071 -112.760561671 34.5019088425 -107.996182315 40 -97 c 0
 110.446525067 13.9532769801 159 143.479791265 159 311 c 0
 159 478.849477645 110.507810693 608.950198159 40 720 c 0
 34.2055615641 731.588876872 36.1799660173 735.786644012 44 741 c 2
 64 754 l 1
EndSplineSet
EndChar

StartChar: bracketleft
Encoding: 14 91 9
Width: 293
VWidth: 988
Flags: W
HStem: -130 32<140 257> 718 32<140 257>
VStem: 100 40<-98 718>
LayerCount: 2
Fore
SplineSet
257 732 m 2
 257 723.63751988 250.825480811 718 242 718 c 2
 140 718 l 1
 140 -98 l 1
 242 -98 l 2
 251.369725088 -98 257 -104.121353936 257 -113 c 2
 257 -130 l 1
 100 -130 l 1
 100 750 l 1
 257 750 l 1
 257 732 l 2
EndSplineSet
EndChar

StartChar: bracketright
Encoding: 15 93 10
Width: 293
VWidth: 988
Flags: W
HStem: -130 32<37 153> 718 32<37 153>
VStem: 153 40<-98 718>
LayerCount: 2
Fore
SplineSet
51 718 m 2
 42.6563537415 718 37 724.15686413 37 732 c 2
 37 750 l 1
 193 750 l 1
 193 -130 l 1
 37 -130 l 1
 37 -113 l 2
 37 -104.6830217 42.1651140022 -98 51 -98 c 2
 153 -98 l 1
 153 718 l 1
 51 718 l 2
EndSplineSet
EndChar

StartChar: braceleft
Encoding: 16 123 11
Width: 291
VWidth: 988
Flags: W
HStem: -130 32<169.367 254> 295 30<41 83.4966> 718 32<171.585 254>
VStem: 87 42<-63.1043 139.765 479.278 682.235> 117 41<92.7491 273.436 346.728 526.246>
LayerCount: 2
Fore
SplineSet
254 729 m 2xf0
 254 722.02607883 247.321674934 718 241 718 c 2
 225 718 l 2
 163.795764356 718 129 672.982173657 129 611 c 0xf0
 129 532.348580464 158 476.455432903 158 400 c 0
 158 361.649510375 136.97766814 334.8764823 112 321 c 0
 103 316 95 312 85 310 c 1
 125.428628056 301.914274389 158 267.33277063 158 219 c 0xe8
 158 142.776693204 129 86.3152919898 129 8 c 0
 129 -54.5132996762 162.858491966 -98 225 -98 c 2
 241 -98 l 2
 247.893806563 -98 254 -102.490303882 254 -110 c 2
 254 -130 l 1
 226 -130 l 2
 157.571228628 -130 114.914031749 -95.7564232894 97 -45 c 0
 91 -28 87 -10 87 10 c 0xf0
 87 87.1704928645 117 143.168721447 117 220 c 0
 117 265.702881214 86.4392382511 295 41 295 c 1
 41 325 l 1
 78.7986219714 325 100.300841688 343.676893798 112 370 c 0
 116 379 117 388 117 399 c 0xe8
 117 475.939212473 87 531.926014091 87 609 c 0
 87 693.82520579 140.604772878 750 226 750 c 2
 254 750 l 1
 254 729 l 2xf0
EndSplineSet
EndChar

StartChar: braceright
Encoding: 17 125 12
Width: 291
VWidth: 988
Flags: W
HStem: -130 32<38 121.534> 295 30<208.416 251> 718 32<38 119.997>
VStem: 134 40<93.8673 271.932 348.681 525.131> 163 41<-59.5891 137.739 481.304 679.994>
LayerCount: 2
Fore
SplineSet
204 609 m 0xe8
 204 531.931330757 174 475.93827522 174 399 c 0
 174 363.828251645 195.166625269 341.037055436 220 330 c 0
 229 326 239 325 251 325 c 1
 251 295 l 1
 206.028737221 295 174 264.77855898 174 220 c 0xf0
 174 143.167161187 204 87.1764541741 204 10 c 0
 204 -56.1986364717 171.730431862 -100.346292763 124 -120 c 0
 107 -127 87 -130 65 -130 c 2
 38 -130 l 1
 38 -110 l 2
 38 -103.004716738 43.5369071621 -98 50 -98 c 2
 67 -98 l 2
 116.238495214 -98 141.040296966 -72.2952278876 155 -36 c 0
 160 -23 163 -8 163 8 c 0xe8
 163 85.0476527345 134 141.464687535 134 219 c 0
 134 258.549108808 154.194213024 284.66345168 180 299 c 0
 189 304 197 308 207 310 c 1
 166.450391128 318.109921774 134 351.400538302 134 400 c 0xf0
 134 477.758778999 163 533.614306258 163 611 c 0
 163 672.40125382 127.879171652 718 67 718 c 2
 50 718 l 2
 44.1297986962 718 38 722.521196884 38 729 c 2
 38 750 l 1
 65 750 l 2
 151.544325749 750 204 695.355953236 204 609 c 0xe8
EndSplineSet
EndChar

StartChar: quotedbl
Encoding: 2 34 13
Width: 336
VWidth: 988
Flags: W
HStem: 462 237<80.6875 113.25 223.688 256.312>
VStem: 76 41<462.005 699> 219 42<462.005 699>
LayerCount: 2
Fore
SplineSet
261 699 m 1
 261 555 l 1
 256 479 l 1
 254.098472268 467.59083361 252.930210727 462 240 462 c 0
 228.883736803 462 224.686451068 468.565943764 224 479 c 2
 219 555 l 1
 219 699 l 1
 261 699 l 1
117 699 m 1
 117 555 l 1
 113 479 l 1
 111.17165289 468.029917341 108.425473056 462 96 462 c 0
 85.5704482756 462 82.6264269612 469.241438233 81 479 c 2
 76 555 l 1
 76 699 l 1
 117 699 l 1
EndSplineSet
EndChar

StartChar: ampersand
Encoding: 6 38 14
Width: 690
VWidth: 988
Flags: W
HStem: -8 39<180.855 361.927> 0 21G<623.647 675> 670 37<253.29 391.323>
VStem: 53 48<102.962 262.203> 150 44<468.088 616.967> 437 53<565.704 632.034> 552 40<238.983 334>
DStem2: 279 389 248 359 0.713384 -0.700774<-124.933 -42.0896 -16.6549 309.726 354.6 532.54>
LayerCount: 2
Fore
SplineSet
243 365 m 1xbe
 181.814213599 339.969451018 134.694384934 298.928418402 111 238 c 0
 104 220 101 201 101 182 c 0
 101 128.727891653 124.007216098 93.1270793816 153 68 c 0
 178.271020616 46.0984487998 218.197329161 31 261 31 c 0
 362.099612697 31 429.606885935 79.2586074185 475 136 c 1
 248 359 l 1
 243 365 l 1xbe
592 334 m 1
 589.582706187 259.063891786 561.898421386 194.847632078 528 144 c 1
 675 0 l 1
 631 0 l 2x7e
 616.294232664 0 611.600971894 2.39902810627 603 11 c 2
 502 110 l 1
 473.679538319 75.610867959 436.368419936 47.6691723476 395 26 c 0
 356.790626463 5.98556624248 309.738350076 -8 254 -8 c 0
 163.541085561 -8 101.925029229 38.8103606451 70 100 c 0
 58 123 53 149 53 179 c 0
 53 262.995966065 103.001000643 318.30070045 154 354 c 0
 174 368 196 380 220 389 c 1
 196 416 179 441 167 466 c 0
 155 491 150 518 150 546 c 0
 150 624.498281685 195.177268238 673.609915723 254 695 c 0
 276 703 299 707 326 707 c 0
 398.396940305 707 450.640202267 668.901840163 476 621 c 0
 485 604 489 585 490 567 c 1
 463 562 l 1
 446.170340239 556.390113413 443.117169611 590.542226857 437 604 c 0
 425.781835465 628.679961978 402.361772788 647.319113606 377 660 c 0
 363 667 345 670 326 670 c 0
 264.801148178 670 221.561410531 639.903526328 204 596 c 0
 198 581 194 564 194 546 c 0
 194 519 201 494 215 469 c 0
 229 444 250 417 279 389 c 2
 500 172 l 1
 525.789634145 213.263414631 545.082701883 264.661615064 552 320 c 0
 553.900478395 327.60191358 556.137096587 334 565 334 c 2
 592 334 l 1
EndSplineSet
EndChar

StartChar: dollar
Encoding: 4 36 15
Width: 573
VWidth: 988
Flags: W
HStem: -7 39<293 369.794> 666 40<214.262 293 327 396.711>
VStem: 99 44<459.617 602.201> 253 33<-127 -7> 279 31<393 490.5> 296 31<706 804.739> 458 45<112.627 266.663>
LayerCount: 2
Fore
SplineSet
293 32 m 1xe2
 370.500341872 37.9615647594 424.689709617 74.4434975321 447 135 c 0
 454 154 458 175 458 197 c 0
 458 289.960818128 379.879321344 315.436203597 308 337 c 1
 293 32 l 1xe2
293 666 m 1
 225.247811959 663.289912478 171.955195547 630.547188126 153 580 c 0
 147 564 143 547 143 530 c 0
 143 488.236224678 159.499048732 458.846885591 184 440 c 0
 211.20690878 419.07160863 242.191177708 405.269607431 279 393 c 1xea
 293 666 l 1
300 789 m 2
 300 797.499960254 306.15686413 805 314 805 c 2
 332 805 l 1
 327 705 l 1xf6
 396.499629317 700.787901254 444.35145534 672.64854466 483 634 c 1
 472 617 l 2
 469 611 465 609 459 609 c 0
 455 609 449 612 443 617 c 0
 414.091120101 641.090733249 376.318282575 661.112544517 325 666 c 1
 310 383 l 1xea
 356.534589032 366.814055989 405.694206399 353.220850934 442 327 c 0
 477.653271228 301.250415224 503 264.909262581 503 204 c 0
 503 105.609509694 450.167312977 43.9233752203 381 12 c 0
 355 0 325 -5 291 -7 c 1
 286 -112 l 2
 286 -120.869764835 280.678325066 -127 271 -127 c 2
 253 -127 l 1
 259 -7 l 1
 169.564860706 -2.74118384316 113.147807678 34.0065416823 67 84 c 1
 80 103 l 2
 84 108 89 110 94 110 c 0
 97 110 101 109 105 105 c 0
 109 101 115 96 121 91 c 0
 127 86 134 79 143 73 c 0
 174.167350979 52.2217660139 210.475131442 34.8069371421 261 32 c 1
 277 347 l 1
 187.042483931 375.622846022 99 407.043082281 99 526 c 0
 99 609.685805905 150.89931069 664.541379454 212 690 c 0
 236 700 264 705 296 706 c 1xf6
 300 789 l 2
EndSplineSet
EndChar

StartChar: numbersign
Encoding: 3 35 16
Width: 573
VWidth: 988
Flags: W
HStem: 0 21G<99 126.602 299.17 329.292> 219 35<43 145 190 332 377 501> 446 35<68.7656 191 236 378 423 530.234>
DStem2: 99 0 143 20 0.201369 0.979515<4.16267 223.777 267.121 455.39 498.734 717.504> 290 22 325 0 0.203321 0.979112<-14.4242 201.425 244.843 433.036 476.454 691.324>
LayerCount: 2
Fore
SplineSet
378 446 m 1
 231 446 l 1
 190 254 l 1
 338 254 l 1
 378 446 l 1
533 481 m 1
 530 462 l 2
 528.104526226 450.627157359 522.454297154 446 509 446 c 2
 418 446 l 1
 377 254 l 1
 488 254 l 2
 499.036465916 254 504.793634568 246.555441979 503 234 c 2
 501 219 l 1
 372 219 l 1
 325 0 l 1
 305 0 l 2
 293.34031023 0 286.324511249 9.13578937054 290 22 c 2
 332 219 l 1
 185 219 l 1
 143 20 l 2
 141.239770631 7.67839441893 133.204712035 0 120 0 c 2
 99 0 l 1
 145 219 l 1
 55 219 l 2
 42.0036866737 219 39.2129303921 224.703443137 41 239 c 2
 43 254 l 1
 151 254 l 1
 191 446 l 1
 66 446 l 1
 69 465 l 2
 70 476 77 481 91 481 c 2
 197 481 l 1
 239 681 l 2
 240.932065454 692.592392725 248.807604701 699 262 699 c 2
 282 699 l 1
 236 481 l 1
 384 481 l 1
 430 699 l 1
 450 699 l 2
 462.051394151 699 467.8198881 691.739216703 466 679 c 2
 423 481 l 1
 533 481 l 1
EndSplineSet
EndChar

StartChar: less
Encoding: 11 60 17
Width: 573
VWidth: 988
Flags: W
DStem2: 86 342 170 345 0.890067 0.45583<39.6443 407.478> 170 319 86 322 0.889093 -0.457727<-36.4635 331.839>
LayerCount: 2
Fore
SplineSet
170 345 m 2
 159.957961212 338.974776727 147.318693201 335.519626629 135 332 c 1
 148 329 159 325 170 319 c 2
 443 180 l 2
 451.34202632 176.663189472 457 173.146320116 457 163 c 2
 457 131 l 1
 86 322 l 1
 86 342 l 1
 457 532 l 1
 457 500 l 2
 457 490.123565412 450.572117339 487.543270404 443 483 c 2
 170 345 l 2
EndSplineSet
EndChar

StartChar: greater
Encoding: 12 62 18
Width: 573
VWidth: 988
Flags: W
DStem2: 117 532 130 483 0.889567 -0.456805<10.2781 376.307> 403 319 117 131 0.888589 0.458704<-330.969 36.4748>
LayerCount: 2
Fore
SplineSet
487 342 m 1
 487 322 l 1
 117 131 l 1
 117 163 l 2
 117 172.498996114 122.147843123 176.859137249 130 180 c 2
 403 319 l 2
 413.042038788 325.025223273 425.681306799 328.480373371 438 332 c 1
 425 335 414 339 403 345 c 2
 130 483 l 2
 121 488 117 493 117 500 c 2
 117 532 l 1
 487 342 l 1
EndSplineSet
EndChar

StartChar: percent
Encoding: 5 37 19
Width: 770
VWidth: 988
Flags: W
HStem: -8 32<516.854 632.094> 0 21G<107 144.5> 310 32<516.682 631.884> 357 32<138.753 254.205> 675 32<138.652 253.769>
VStem: 49 38<442.921 620.045> 306 38<441.98 620.706> 428 37<77.4413 256.241> 684 37<77.0615 255.798>
DStem2: 107 0 158 9 0.587754 0.80904<13.1143 877.212>
LayerCount: 2
Fore
SplineSet
344 531 m 0x3f80
 344 475.790289913 327.543249686 428.543249686 300 401 c 0
 274.968702693 375.968702693 242.764683191 357 196 357 c 0
 122.271775552 357 81.4301118932 399.817192294 61 456 c 0
 53 478 49 502 49 531 c 0
 49 631.684991291 97.558156378 707 196 707 c 256
 269.818523701 707 311.647619694 663.969045841 332 608 c 0
 340 586 344 560 344 531 c 0x3f80
196 389 m 256
 274.433716964 389 306 450.286735867 306 531 c 256
 306 612.048125924 274.692557225 675 196 675 c 256
 118.500775414 675 87 610.607783375 87 531 c 256
 87 451.204169154 118.594307962 389 196 389 c 256
609 691 m 2
 612.595749791 696.393624686 617.863216309 699 627 699 c 2
 660 699 l 1
 158 9 l 2
 154 3 148 0 141 0 c 2
 107 0 l 1x7f80
 609 691 l 2
721 166 m 0
 721 109.335855774 703.789558129 64.8502933696 677 36 c 0
 653.466045087 10.6557408631 620.01757517 -8 574 -8 c 0xbf80
 501.06772242 -8 459.19734223 34.4573088665 439 90 c 0
 431 112 428 137 428 166 c 0
 428 248.042093734 458.815572708 308.37272272 517 331 c 0
 535 338 554 342 574 342 c 256
 647.818523701 342 689.647619694 298.969045841 710 243 c 0
 718 221 721 195 721 166 c 0
574 24 m 256
 652.433716964 24 684 85.2867358673 684 166 c 256
 684 247.481699915 653.214295907 310 574 310 c 256
 495.590062281 310 465 246.800004238 465 166 c 256
 465 85.958139354 496.35624104 24 574 24 c 256
EndSplineSet
EndChar

StartChar: py
Encoding: 21 60800 20
Width: 538
VWidth: 988
GlyphClass: 2
Flags: W
HStem: 0 43<129 247.395> 471.844 20G<423 469> 730 20G<81 129>
VStem: 81 48<43 750> 423 45<284.675 491.844>
AnchorPoint: "Top" 326 661 basechar 0
AnchorPoint: "Bottom" 226 0 basechar 0
LayerCount: 2
Fore
SplineSet
398 140 m 0
 334.773654897 43.2690959533 237 0 120 0 c 2
 81 0 l 1
 81 250 81 500 81 750 c 1
 129 750 l 1
 129 514.333333333 129 278.666666667 129 43 c 1
 132 43 l 2
 227 43 302.158717624 74.8835807525 352 143 c 0
 412 225 423 336.84375 423 491.84375 c 1
 468 491.84375 l 1
 470 336.84375 451.773654897 222.269095953 398 140 c 0
EndSplineSet
EndChar

StartChar: ty
Encoding: 22 60801 21
Width: 551
VWidth: 988
GlyphClass: 2
Flags: W
HStem: 0 21G<81 129 421 468> 462 38<217.334 364.854> 730 20G<81 129>
VStem: 81 48<0 394.284 409 750> 421 47<0 407.217>
AnchorPoint: "Top" 345 658 basechar 0
AnchorPoint: "Bottom" 277 0 basechar 0
LayerCount: 2
Fore
SplineSet
293 462 m 0
 216.405424354 462 165.609451181 418.25791292 129 370 c 1
 129 0 l 1
 81 0 l 1
 81 750 l 1
 129 750 l 1
 129 409 l 1
 168.767584373 457.412711411 222.665732997 500 304 500 c 0
 416.547804063 500 468 427.01294697 468 314 c 2
 468 0 l 1
 421 0 l 1
 421 314 l 2
 421 403.46259876 381.455161826 462 293 462 c 0
EndSplineSet
EndChar

StartChar: ky
Encoding: 23 60802 22
Width: 551
VWidth: 988
GlyphClass: 2
Flags: W
HStem: 0 21G<81 110.815 421 468> 472 20G<439.309 468> 730 20G<81 129>
VStem: 81 48<52.785 750> 421 47<0 437.201>
DStem2: 117 52 125 10 0.583558 0.812071<0 497.28>
CounterMasks: 1 e0
AnchorPoint: "Top" 337 657 basechar 0
AnchorPoint: "Bottom" 268 0 basechar 0
LayerCount: 2
Fore
SplineSet
81 750 m 1
 129 750 l 1
 129 103 l 2
 129 94.3125661931 126.16296709 68.6074936735 117 52 c 1
 426 482 l 2
 430.537109375 486.537109375 433.6171875 492 445 492 c 2
 468 492 l 1
 468 0 l 1
 421 0 l 1
 421 391 l 2
 421 394.047691889 423.159471625 421.106860117 432 438 c 1
 125 10 l 1
 121.190429688 6.6142578125 115.630859375 0 106 0 c 2
 81 0 l 1
 81 750 l 1
EndSplineSet
EndChar

StartChar: fy
Encoding: 24 60803 23
Width: 446
VWidth: 988
GlyphClass: 2
Flags: W
HStem: 0 37<103 391> 472 20G<207.907 255>
VStem: 207 48<191.762 492>
AnchorPoint: "Top" 230 659 basechar 0
AnchorPoint: "Bottom" 228 0 basechar 0
LayerCount: 2
Fore
SplineSet
103 37 m 5
 391 37 l 5
 391 0 l 5
 32 0 l 5
 32 17 l 6
 32 28 33 34 35 35 c 4
 149 101 207 182 207 278 c 6
 208 492 l 5
 255 492 l 5
 255 324 l 6
 255 212 219 126 147 64 c 5
 103 37 l 5
EndSplineSet
EndChar

StartChar: ly
Encoding: 25 60804 24
Width: 466
VWidth: 988
GlyphClass: 2
Flags: W
HStem: -6 37<194.484 356.76> 463 37<195.04 356.263>
VStem: 51 49<126.975 363.84>
AnchorPoint: "Top" 273 655 basechar 0
AnchorPoint: "Bottom" 252 -3 basechar 0
LayerCount: 2
Fore
SplineSet
431 63 m 1
 397.170770016 20.7134625201 338.690806842 -6 263 -6 c 0
 156.30393588 -6 93.6946743018 56.2465096644 67 139 c 0
 57 170 51 206 51 246 c 0
 51 362.12319615 98.3454150812 446.005177892 180 481 c 0
 208 493 238 500 274 500 c 0
 339.259026061 500 389.644299169 475.447050785 424 443 c 1
 412 426 l 2
 408.683702891 422.683702891 406.628806054 420 401 420 c 0
 398 420 394 423 388 427 c 0
 359.857686455 445.761542363 326.470914608 463 277 463 c 0
 184.19782317 463 132.580329089 408.833610676 111 336 c 0
 103 309 100 279 100 246 c 0
 100 146.188473865 133.127994201 76.8438122855 200 45 c 0
 221 35 244 31 270 31 c 0
 327.498265099 31 366.731070964 48.7310709637 394 76 c 0
 400 82 405 84 409 84 c 256
 413 84 416 82 419 79 c 2
 431 63 l 1
EndSplineSet
EndChar

StartChar: sy
Encoding: 26 60805 25
Width: 544
VWidth: 988
GlyphClass: 2
Flags: W
HStem: -6 37<181.114 335.777> 463 37<189.095 320.974> 733 20G<420 467>
VStem: 46 48<123.524 360.463> 420 47<114.714 753>
AnchorPoint: "Top" 251 661 basechar 0
AnchorPoint: "Bottom" 261 0 basechar 0
LayerCount: 2
Fore
SplineSet
94 244 m 0
 94 122.769581628 142.802446891 31 261 31 c 0
 337.982198285 31 386.89587419 75.9636540221 408 134 c 0
 416 156 420 180 420 207 c 2
 420 753 l 1
 467 753 l 1
 467 207 l 2
 467 105.631204343 418.493638613 38.3974554453 345 9 c 0
 322 0 296 -5 269 -6 c 1
 261 -6 l 2
 153.686973934 -6 90.8361650971 53.7344438171 62 135 c 0
 51 166 46 202 46 244 c 0
 46 357.870193129 90.3620456166 442.618762704 168 480 c 0
 195 493 225 500 260 500 c 0
 287 500 312 495 334 485 c 1
 328 462 l 2
 328 461 328 458 321 455 c 0
 317 453 309 456 309 456 c 1
 309 456 283 463 269 463 c 0
 207.042253059 463 167.155839564 437.664063448 139 402 c 0
 110.171438925 365.483822638 94 308.023435158 94 244 c 0
EndSplineSet
EndChar

StartChar: cy
Encoding: 27 60806 26
Width: 582
VWidth: 988
GlyphClass: 2
Flags: W
HStem: 0 21G<81 128 420 468> 456 39<213.728 364.502> 730 20G<423 452.724>
VStem: 81 47<0 381.953 399 479> 81 40<406 492> 420 48<0 402.283 421.657 750>
AnchorPoint: "Top" 222 661 basechar 0
AnchorPoint: "Bottom" 283 0 basechar 0
LayerCount: 2
Fore
SplineSet
292 456 m 0xec
 212.734951864 456 161.222481725 406.817094846 128 352 c 1
 128 0 l 1
 81 0 l 1xf4
 81 164 81 328 81 492 c 1
 107 492 l 2
 115 492 120 488 121 479 c 2
 126 406 l 1
 126 399 l 1
 162.678389521 449.651109339 215.498439612 495 295 495 c 0
 362.671927495 495 403.038456492 466.923087016 426 421 c 1
 425 435 423 450 423 464 c 0
 423 559.333333333 423 654.666666667 423 750 c 1
 446 750 l 2
 459.447882086 750 468 743.28616474 468 730 c 2
 468 0 l 1
 420 0 l 1
 420 307 l 2
 420 397.074190178 382.205217685 456 292 456 c 0xec
EndSplineSet
EndChar

StartChar: my
Encoding: 28 60807 27
Width: 446
VWidth: 988
GlyphClass: 2
Flags: W
HStem: 0 37<126 406> 467 33<148.588 294.516>
VStem: 45 40<353.95 410.759> 348 39<284.042 420.791>
AnchorPoint: "Top" 220 661 basechar 0
AnchorPoint: "Bottom" 226 0 basechar 0
LayerCount: 2
Fore
SplineSet
45 355 m 1
 57.7010990653 441.367473644 120.720309243 500 222 500 c 0
 297 500 350 468 374 419 c 0
 383 401 387 380 387 356 c 0
 387 311 371 279 351 250 c 0
 335 225 271 167 257 156 c 2
 94 29 l 1
 105 32 115 34 126 35 c 2
 161 37 l 1
 389 37 l 2
 395 37 406 27 406 20 c 2
 406 0 l 1
 29 0 l 1
 29 17 l 2
 29 26 39 38 39 38 c 1
 224 176 l 1
 224 176 320 250 339 305 c 0
 345 320 348 338 348 355 c 0
 348 428 298 467 221 467 c 4
 144 467 98 425 85 365 c 0
 83 356 76 350 65 352 c 2
 45 355 l 1
EndSplineSet
EndChar

StartChar: xy
Encoding: 29 60808 28
Width: 560
VWidth: 988
GlyphClass: 2
Flags: W
HStem: -6 37<193.123 360.39> 463 37<191.788 356.471>
VStem: 51 49<126.497 364.378> 451 49<125.986 366.146>
AnchorPoint: "Top" 277 661 basechar 0
AnchorPoint: "Bottom" 281 0 basechar 0
LayerCount: 2
Fore
SplineSet
276 500 m 256
 389.475587419 500 456.932032227 438.010700098 485 351 c 0
 495 320 500 285 500 246 c 256
 500 127.590257007 453.200905749 46.6575310354 370 11 c 0
 342 -1 311 -6 276 -6 c 256
 160.992930303 -6 94.3890489905 53.9939481296 66 142 c 0
 56 173 51 207 51 246 c 256
 51 364.983009923 97.4352598301 446.186539927 181 482 c 0
 209 494 241 500 276 500 c 256
100 246 m 0
 100 120.571002785 151.499577356 31 276 31 c 256
 400.706882163 31 451 120.470538407 451 246 c 0
 451 344.054881668 420.387167899 416.369469137 353 447 c 0
 331 457 305 463 276 463 c 256
 151.621105082 463 100 370.998008753 100 246 c 0
EndSplineSet
EndChar

StartChar: denpabu
Encoding: 30 60809 29
Width: 239
VWidth: 988
GlyphClass: 2
Flags: W
HStem: 243 101<78.7464 160.704>
VStem: 70 100<253.221 334.628>
AnchorPoint: "Top" 115 661 basechar 0
AnchorPoint: "Bottom" 114 -1 basechar 0
LayerCount: 2
Fore
SplineSet
119 243 m 0
 90.8847801999 243 70 264.930037866 70 293 c 0
 70 321.300175042 90.630467652 344 119 344 c 0
 147.572334496 344 170 321.568961011 170 293 c 0
 170 268.232470919 154.767594253 255.383797127 138 247 c 0
 132 244 126 243 119 243 c 0
EndSplineSet
Substitution2: "Single Substitution lookup 73 subtable" denpabu.cas
EndChar

StartChar: yhy
Encoding: 31 60810 30
Width: 237
VWidth: 988
GlyphClass: 2
Flags: W
HStem: 0 21G<87 133> 472 20G<87 133>
VStem: 87 46<0 492>
AnchorPoint: "Top" 110 661 basechar 0
AnchorPoint: "Bottom" 110 0 basechar 0
LayerCount: 2
Fore
SplineSet
133 492 m 5
 133 0 l 5
 87 0 l 1
 87 492 l 1
 133 492 l 5
EndSplineSet
Substitution2: "Single Substitution lookup 75 subtable" yhy.cas
Substitution2: "Single Substitution lookup 74 subtable" yhy.cas
EndChar

StartChar: cnimahobu
Encoding: 32 60811 31
Width: 464
VWidth: 988
GlyphClass: 2
Flags: W
HStem: 0 21G<333 379> 343 56<52.189 250.279> 471 20G<329 379>
VStem: 333 46<0 415>
AnchorPoint: "Top" 110 661 basechar 0
AnchorPoint: "Bottom" 110 0 basechar 0
LayerCount: 2
Fore
SplineSet
74 399 m 0
 94.8488042796 399 122.847494903 395 148 395 c 0
 195.694709385 395 228.398122591 403.959249036 261 417 c 0
 275 424 292 431 300 444 c 0
 317 465 327 480 331 491 c 1
 379 491 l 1
 379 0 l 1
 333 0 l 1
 333 415 l 1
 320 397 292 382 249 364 c 0
 216 350 175 343 126 343 c 0
 96.0461471667 343 66.2338191226 346.663503876 43 353 c 1
 52 390 l 1
 56 396 62 399 74 399 c 0
EndSplineSet
EndChar

StartChar: patonga
Encoding: 33 60812 32
Width: 395
VWidth: 988
GlyphClass: 4
Flags: W
HStem: -207 133
VStem: -75 154
AnchorPoint: "Bottom" 0 0 mark 0
LayerCount: 2
Fore
SplineSet
79 -74 m 1
 -29 -199 l 2
 -34.0238480498 -204.02384805 -38.0468833841 -207 -47 -207 c 2
 -75 -207 l 1
 2 -89 l 2
 9.53861168257 -77.6920824762 14.4214622065 -74 32 -74 c 2
 79 -74 l 1
EndSplineSet
EndChar

StartChar: retonga
Encoding: 34 60813 33
Width: 0
VWidth: 988
GlyphClass: 4
Flags: W
HStem: -206 134
VStem: -78 152
AnchorPoint: "Bottom" 0 0 mark 0
LayerCount: 2
Fore
SplineSet
-33 -72 m 2
 -16.2515551755 -72 -10.2199456092 -77.1700815863 -3 -88 c 2
 74 -206 l 1
 47 -206 l 2
 37.1754771997 -206 34.4233700715 -202.423370072 29 -197 c 2
 -78 -72 l 1
 -33 -72 l 2
EndSplineSet
EndChar

StartChar: citonga
Encoding: 35 60814 34
Width: 0
VWidth: 988
GlyphClass: 4
Flags: W
HStem: -220 121
VStem: -129 257
DStem2: -129 -220 -82 -214 0.66244 0.749115<12.9797 156.621> 20 -99 0 -125 0.665893 -0.746047<6.07936 147.871>
AnchorPoint: "Bottom" 0 0 mark 0
LayerCount: 2
Fore
SplineSet
128 -220 m 1
 96 -220 l 2
 91 -220 86 -219 82 -214 c 2
 5 -131 l 2
 3.2279907193 -129.227990719 1.79808266492 -126.798082665 0 -125 c 1
 -1.79255763833 -126.792557638 -3.2328370544 -129.232837054 -5 -131 c 2
 -82 -214 l 2
 -85.3532518066 -217.353251807 -89.9329816567 -220 -96 -220 c 2
 -129 -220 l 1
 -22 -99 l 1
 20 -99 l 1
 128 -220 l 1
EndSplineSet
EndChar

StartChar: votonga
Encoding: 36 60815 35
Width: 0
VWidth: 988
GlyphClass: 4
Flags: W
HStem: -211 122
VStem: -130 258
DStem2: -6 -177 -130 -89 0.662839 -0.748762<-132.589 9.21837> 5 -177 128 -89 0.662839 0.748762<-8.42313 132.382>
AnchorPoint: "Bottom" 0 0 mark 0
LayerCount: 2
Fore
SplineSet
128 -89 m 1
 20 -211 l 1
 -22 -211 l 1
 -130 -89 l 1
 -96 -89 l 2
 -91 -89 -86 -90 -83 -94 c 2
 -6 -177 l 2
 -4.73344122543 -179.533117549 -1.92202113585 -182.077978864 -0 -184 c 1
 2 -182 3 -179 5 -177 c 2
 82 -94 l 2
 85 -90 90 -89 95 -89 c 2
 128 -89 l 1
EndSplineSet
EndChar

StartChar: by
Encoding: 37 60816 36
Width: 509
VWidth: 988
GlyphClass: 2
Flags: W
HStem: -250 21G<386 434> 0 21G<45 91> 458 43<270.268 386>
VStem: 46 45<0 206.25> 386 48<-250 458>
AnchorPoint: "Top" 340 655 basechar 0
AnchorPoint: "Bottom" 214 0 basechar 0
LayerCount: 2
Fore
SplineSet
116 361 m 0
 185 454 277 501 394 501 c 2
 434 501 l 1
 434 250.666666667 434 0.333333333333 434 -250 c 1
 386 -250 l 1
 386 -14 386 222 386 458 c 1
 382 458 l 2
 287 458 215 423 163 357 c 0
 100 276 91 155 91 0 c 1
 46 0 l 1
 44 155 57 282 116 361 c 0
EndSplineSet
EndChar

StartChar: dy
Encoding: 38 60817 37
Width: 544
VWidth: 988
GlyphClass: 2
Flags: W
HStem: -250 21G<415 464> -8 38<178.998 323.601> 472 20G<76 123 415 464>
VStem: 76 47<84.4719 492> 415 49<-250 85 97.7164 492>
AnchorPoint: "Top" 270 657 basechar 0
AnchorPoint: "Bottom" 221 0 basechar 0
LayerCount: 2
Fore
SplineSet
251 30 m 0
 327.594575646 30 378.390548819 73.7420870801 415 122 c 1
 415 492 l 1
 431.333333333 492 447.666666667 492 464 492 c 1
 464 -250 l 1
 415 -250 l 1
 415 85 l 1
 375.017578125 36.326171875 320.916728677 -8 239 -8 c 0
 127.456985326 -8 76 65.0191738377 76 177 c 2
 76 492 l 1
 123 492 l 1
 123 177 l 2
 123 87.9999815835 163.013145181 30 251 30 c 0
EndSplineSet
EndChar

StartChar: gy
Encoding: 39 60818 38
Width: 551
VWidth: 988
GlyphClass: 2
Flags: W
HStem: -250 21G<421 468> 0 21G<81 111.41> 472 20G<81 129 439.145 468>
VStem: 81 48<53.9411 492> 421 47<-250 436.311>
DStem2: 117 53 125 9 0.584454 0.811427<0 497.444>
AnchorPoint: "Top" 273 659 basechar 0
AnchorPoint: "Bottom" 268 0 basechar 0
LayerCount: 2
Fore
SplineSet
468 -250 m 1
 421 -250 l 1
 421 379 l 2
 421 387.759980029 424.868165948 422.614712757 435 437 c 1
 125 9 l 1
 120.456567453 5.0244965213 116.82020212 0 106 0 c 2
 81 0 l 1
 81 492 l 1
 129 492 l 1
 129 101 l 2
 129 98.0000000866 128.797704794 72.999998632 117 53 c 1
 426 482 l 2
 429.680010666 485.680010666 434.290182452 492 444 492 c 2
 468 492 l 1
 468 -250 l 1
EndSplineSet
EndChar

StartChar: vy
Encoding: 40 60819 39
Width: 446
VWidth: 988
GlyphClass: 2
Flags: W
HStem: 0 21G<179 226> 455 37<42 331>
VStem: 179 47<0 303.403>
AnchorPoint: "Top" 224 661 basechar 0
AnchorPoint: "Bottom" 203 0 basechar 0
LayerCount: 2
Fore
SplineSet
331 455 m 1
 42 455 l 1
 42 492 l 1
 401 492 l 1
 401 475 l 2
 401 464 400 457 398 456 c 0
 284 390 226 310 226 214 c 2
 226 0 l 1
 179 0 l 1
 179 168 l 2
 179 280 214 366 286 428 c 1
 331 455 l 1
EndSplineSet
EndChar

StartChar: ry
Encoding: 41 60820 40
Width: 472
VWidth: 988
GlyphClass: 2
Flags: W
HStem: -6 37<126.625 290.159> 463 37<126.234 285.885>
VStem: 383 48<129.65 361.768>
AnchorPoint: "Top" 221 661 basechar 0
AnchorPoint: "Bottom" 233 0 basechar 0
LayerCount: 2
Fore
SplineSet
58 443 m 1
 92.3662763442 475.457038769 142.736267897 500 208 500 c 0
 321.82007598 500 387.848994819 436.268116062 416 349 c 0
 426 318 431 284 431 246 c 0
 431 130.237421159 385.96719084 45.2553499708 305 11 c 0
 279 0 250 -6 219 -6 c 0
 143.511343439 -6 84.6401256818 20.9498428978 51 63 c 1
 64 79 l 2
 67 82 70 84 74 84 c 256
 78 84 82 82 88 76 c 0
 114.567375178 49.4326248219 155.675124931 31 212 31 c 0
 331.150080801 31 383 125.851895603 383 246 c 0
 383 344.107864634 348.273999813 417.420909176 281 448 c 0
 259 458 234 463 206 463 c 0
 156.156450833 463 123.319893915 445.879929277 95 427 c 0
 89 423 85 420 82 420 c 0
 75.5477639307 420 73.9677653688 423.032234631 71 426 c 2
 58 443 l 1
EndSplineSet
EndChar

StartChar: zy
Encoding: 42 60821 41
Width: 547
VWidth: 988
GlyphClass: 2
Flags: W
HStem: -250 21G<75 122> -6 37<220.526 352.978> 462 38<203.338 361.305>
VStem: 75 47<-250 380.913> 447 49<129.37 369.865>
AnchorPoint: "Top" 281 660 basechar 0
AnchorPoint: "Bottom" 284 -0 basechar 0
LayerCount: 2
Fore
SplineSet
447 249 m 0
 447 371.826016365 400.944995899 462 281 462 c 0
 204.449632492 462 154.93663435 417.575744462 134 360 c 0
 126 338 122 313 122 286 c 2
 122 -250 l 1
 75 -250 l 1
 75 286 l 2
 75 386.924329262 123.893430657 455.757372263 197 485 c 0
 222 495 250 500 281 500 c 0
 388.64925673 500 449.966969335 439.820359147 479 358 c 0
 490 327 496 291 496 249 c 0
 496 135.43168751 450.499207232 50.3144331118 373 13 c 0
 346 0 317 -6 282 -6 c 0
 255 -6 230 -1 208 9 c 1
 214 32 l 2
 214 33 214 35 221 38 c 0
 225 40 232 37 232 37 c 1
 232 37 258 31 272 31 c 0
 334.620858295 31 374.595112487 55.0204758169 403 91 c 0
 432.112739556 127.876136771 447 183.950386276 447 249 c 0
EndSplineSet
EndChar

StartChar: jy
Encoding: 43 60822 42
Width: 582
VWidth: 988
GlyphClass: 2
Flags: W
HStem: -250 21G<94.8412 128> -6.42578 42.4258<180.333 337.287> 472 20G<81 128 420 468>
VStem: 81 47<-250 70.0013 89.9706 492> 420 48<110.047 492> 427 41<0 86>
AnchorPoint: "Top" 281 658 basechar 0
AnchorPoint: "Bottom" 289 -4 basechar 0
LayerCount: 2
Fore
SplineSet
256 36 m 0xf4
 335.265048136 36 386.777518275 85.1829051542 420 140 c 1
 420 492 l 1
 436 492 452 492 468 492 c 1xf8
 468 328 468 164 468 0 c 1
 441 0 l 2
 433 0 428 4 427 13 c 2
 423 86 l 1
 422 93 l 1
 385.557096069 42.6740850474 332.869140625 -6.42578125 254 -6.42578125 c 0
 185.786132812 -6.42578125 145.128354205 24.7432915901 122 71 c 1
 123.493757485 50.087395215 127.999549903 3.75478927799 128 -12 c 2
 128 -250 l 1
 102 -250 l 2
 87.6823530792 -250 81 -243.321674934 81 -229 c 2
 81 492 l 1
 128 492 l 1
 128 185 l 2
 128 95.525948701 166.361393968 36 256 36 c 0xf4
EndSplineSet
EndChar

StartChar: ny
Encoding: 44 60823 43
Width: 411
VWidth: 988
GlyphClass: 2
Flags: WO
HStem: -8 33<130.131 276.138> 455 37<29 309>
VStem: 37 40<70.099 207.458> 340 40<81.1804 138.05>
AnchorPoint: "Top" 213 661 basechar 0
AnchorPoint: "Bottom" 205 0 basechar 0
LayerCount: 2
Fore
SplineSet
380 137 m 1
 367.221103704 50.1035051839 303.95631738 -8 202 -8 c 0
 127 -8 75 24 51 73 c 0
 42 91 37 112 37 136 c 0
 37 181 54 213 74 242 c 0
 92 267 162 325 178 336 c 1
 341 463 l 1
 330 460 320 458 309 457 c 2
 273 455 l 1
 45 455 l 2
 39 455 29 465 29 472 c 2
 29 492 l 1
 406 492 l 1
 406 475 l 2
 406 466 396 454 396 454 c 1
 210 315 l 1
 210 315 105 241 85 186 c 0
 79 171 77 154 77 137 c 0
 77 64 127 25 204 25 c 0
 281 25 327 67 340 127 c 0
 342 136 349 142 360 140 c 2
 380 137 l 1
EndSplineSet
EndChar

StartChar: bahebu
Encoding: 45 60824 44
Width: 0
VWidth: 0
GlyphClass: 4
Flags: W
HStem: -180 100<-40.1382 41.8389>
VStem: -49 100<-171.428 -89.1615>
AnchorPoint: "Bottom" 0 0 mark 0
LayerCount: 2
Fore
SplineSet
0 -180 m 0
 -27.7015205934 -180 -49 -158.714854371 -49 -131 c 0
 -49 -102.915198896 -28.027662536 -80 0 -80 c 0
 29.0560906367 -80 51 -101.945351638 51 -131 c 0
 51 -159.739152486 28.6404667242 -180 0 -180 c 0
EndSplineSet
EndChar

StartChar: smajibu
Encoding: 46 60825 45
Width: 365
VWidth: 988
GlyphClass: 2
Flags: W
HStem: 273 40<68 298>
VStem: 68 230<273 313>
LayerCount: 2
Fore
SplineSet
68 313 m 1
 298 313 l 1
 298 273 l 1
 68 273 l 1
 68 313 l 1
EndSplineSet
Substitution2: "Single Substitution lookup 60 subtable" smajibu.fina
Substitution2: "Single Substitution lookup 59 subtable" smajibu.fina
Substitution2: "Single Substitution lookup 58 subtable" smajibu.fina
Substitution2: "Single Substitution lookup 56 subtable" smajibu.medi
Substitution2: "Single Substitution lookup 55 subtable" smajibu.medi
Substitution2: "Single Substitution lookup 54 subtable" smajibu.medi
Substitution2: "Single Substitution lookup 53 subtable" smajibu.medi
Substitution2: "Single Substitution lookup 52 subtable" smajibu.medi
Substitution2: "Single Substitution lookup 51 subtable" smajibu.medi
Substitution2: "Single Substitution lookup 49 subtable" smajibu.init
Substitution2: "Single Substitution lookup 48 subtable" smajibu.init
Substitution2: "Single Substitution lookup 47 subtable" smajibu.init
EndChar

StartChar: tcenabu
Encoding: 48 60827 47
Width: 0
VWidth: 988
GlyphClass: 4
Flags: W
HStem: -135 34<-195 195>
AnchorPoint: "Bottom" -8 0 mark 0
LayerCount: 2
Fore
SplineSet
195 -101 m 5
 195 -135 l 5
 -195 -135 l 5
 -195 -101 l 5
 195 -101 l 5
EndSplineSet
EndChar

StartChar: abu
Encoding: 53 60832 52
Width: 0
VWidth: 988
GlyphClass: 4
Flags: W
HStem: 581 240<-18 18>
VStem: -18 36<581 821>
AnchorPoint: "Top" -0 661 mark 0
LayerCount: 2
Fore
SplineSet
-18 821 m 1
 18 821 l 1
 18 581 l 1
 -18 581 l 1
 -18 821 l 1
EndSplineSet
MultipleSubs2: "Multiple Substitution lookup 62 subtable" denpabu abu
EndChar

StartChar: ebu
Encoding: 54 60833 53
Width: 0
VWidth: 988
GlyphClass: 4
Flags: W
HStem: 651 32<-110 105>
VStem: -110 215<651 683>
AnchorPoint: "Top" -0 661 mark 0
LayerCount: 2
Fore
SplineSet
-110 683 m 1
 105 683 l 1
 105 651 l 1
 -110 651 l 1
 -110 683 l 1
EndSplineSet
MultipleSubs2: "Multiple Substitution lookup 63 subtable" denpabu ebu
EndChar

StartChar: ibu
Encoding: 55 60834 54
Width: 0
VWidth: 988
GlyphClass: 4
Flags: W
HStem: 627 69<-32.4844 32.4844>
VStem: -35 70<629.641 693.657>
AnchorPoint: "Top" 0 661 mark 0
LayerCount: 2
Fore
SplineSet
0 696 m 256
 21 696 35 681 35 661 c 256
 35 642 19 627 0 627 c 256
 -19 627 -35 642 -35 661 c 256
 -35 681 -21 696 0 696 c 256
EndSplineSet
MultipleSubs2: "Multiple Substitution lookup 64 subtable" denpabu ibu
Substitution2: "Single Substitution lookup 33 subtable" iy
Substitution2: "Single Substitution lookup 32 subtable" iy
Substitution2: "Single Substitution lookup 31 subtable" iy
Substitution2: "Single Substitution lookup 30 subtable" iy
Substitution2: "Single Substitution lookup 29 subtable" iy
Substitution2: "Single Substitution lookup 28 subtable" iy
Substitution2: "Single Substitution lookup 27 subtable" iy
Substitution2: "Single Substitution lookup 26 subtable" iy
Substitution2: "Single Substitution lookup 25 subtable" iy
Substitution2: "Single Substitution lookup 24 subtable" iy
Substitution2: "Single Substitution lookup 13 subtable" iy
Substitution2: "Single Substitution lookup 12 subtable" iy
Substitution2: "Single Substitution lookup 11 subtable" iy
Substitution2: "Single Substitution lookup 10 subtable" iy
Substitution2: "Single Substitution lookup 9 subtable" iy
Substitution2: "Single Substitution lookup 8 subtable" iy
Substitution2: "Single Substitution lookup 7 subtable" iy
Substitution2: "Single Substitution lookup 6 subtable" iy
Substitution2: "Single Substitution lookup 5 subtable" iy
Substitution2: "Single Substitution lookup 4 subtable" iy
EndChar

StartChar: obu
Encoding: 56 60835 55
Width: 0
VWidth: 988
GlyphClass: 4
Flags: W
HStem: 615 34<12.7744 86.4052> 667 34<-90.3072 -19.7568>
VStem: -131 30<616 654.871> 95 29<659.815 699>
DStem2: 0 675 -32 658 0.825982 -0.563696<-42.2594 56.4321>
AnchorPoint: "Top" 0 657 mark 0
LayerCount: 2
Fore
SplineSet
-131 616 m 1
 -131 663.341843056 -105.737874157 701 -59 701 c 256
 -34.7612297997 701 -14.9727527592 686.645474368 0 675 c 0
 9 668 18 662 26 657 c 0
 34 652 42 649 51 649 c 0
 81.0665743589 649 95 668.26071892 95 699 c 1
 124 699 l 1
 124 650.463603238 100.999137545 615 53 615 c 0
 28.3226230719 615 9.55188771457 630.632074857 -6 641 c 0
 -15 647 -24 653 -32 658 c 0
 -40 663 -49 667 -57 667 c 0
 -84.3766665475 667 -101 643.682047688 -101 616 c 1
 -131 616 l 1
EndSplineSet
MultipleSubs2: "Multiple Substitution lookup 65 subtable" denpabu obu
EndChar

StartChar: ubu
Encoding: 57 60836 56
Width: 0
VWidth: 988
GlyphClass: 4
Flags: W
HStem: 588 32<-54.4558 54.4616>
VStem: -118 34<650.037 710> 84 34<650.036 710>
AnchorPoint: "Top" -1 661 mark 0
LayerCount: 2
Fore
SplineSet
118 710 m 1
 118 632.483683937 78.4455475432 588 0 588 c 256
 -41.8927859618 588 -72.4560160624 601.335130743 -91 624 c 0
 -108.115097091 644.918452 -118 673.181246357 -118 710 c 1
 -84 710 l 1
 -84 653.756503781 -56.6260885829 620 0 620 c 256
 56.6278837109 620 84 653.754689518 84 710 c 1
 118 710 l 1
EndSplineSet
MultipleSubs2: "Multiple Substitution lookup 66 subtable" denpabu ubu
Substitution2: "Single Substitution lookup 43 subtable" uy
Substitution2: "Single Substitution lookup 42 subtable" uy
Substitution2: "Single Substitution lookup 41 subtable" uy
Substitution2: "Single Substitution lookup 40 subtable" uy
Substitution2: "Single Substitution lookup 39 subtable" uy
Substitution2: "Single Substitution lookup 38 subtable" uy
Substitution2: "Single Substitution lookup 37 subtable" uy
Substitution2: "Single Substitution lookup 36 subtable" uy
Substitution2: "Single Substitution lookup 35 subtable" uy
Substitution2: "Single Substitution lookup 34 subtable" uy
Substitution2: "Single Substitution lookup 23 subtable" uy
Substitution2: "Single Substitution lookup 22 subtable" uy
Substitution2: "Single Substitution lookup 21 subtable" uy
Substitution2: "Single Substitution lookup 20 subtable" uy
Substitution2: "Single Substitution lookup 19 subtable" uy
Substitution2: "Single Substitution lookup 18 subtable" uy
Substitution2: "Single Substitution lookup 17 subtable" uy
Substitution2: "Single Substitution lookup 16 subtable" uy
Substitution2: "Single Substitution lookup 15 subtable" uy
Substitution2: "Single Substitution lookup 14 subtable" uy
EndChar

StartChar: ybu
Encoding: 58 60837 57
Width: 0
VWidth: 988
GlyphClass: 4
Flags: W
HStem: 577 25<-37.2835 37.0706> 714 25<-36.112 36.0173>
VStem: -85 29<619.018 696.468> 56 29<618.948 696.43>
AnchorPoint: "Top" 0 661 mark 0
LayerCount: 2
Fore
SplineSet
-85 658 m 256
 -85 706.556887465 -48.3725136234 739 -0 739 c 0
 48.7232921248 739 85 706.387847099 85 658 c 256
 85 609.721929762 48.2431776675 577 -0 577 c 0
 -48.4421793683 577 -85 610.025481618 -85 658 c 256
0 714 m 0
 -33.3558519476 714 -56 690.752690487 -56 658 c 256
 -56 624.416784326 -34.4001069993 602 0 602 c 0
 33.583215674 602 56 624.399572003 56 658 c 256
 56 690.749202289 32.5368249853 714 0 714 c 0
EndSplineSet
MultipleSubs2: "Multiple Substitution lookup 67 subtable" denpabu ybu
EndChar

StartChar: aibu
Encoding: 59 60838 58
Width: 0
VWidth: 988
GlyphClass: 4
Flags: W
HStem: 574 255
VStem: -44 85
AnchorPoint: "Top" 0 660.394 mark 0
LayerCount: 2
Fore
SplineSet
-11 756 m 1
 -8 757 -6 747 -3 730 c 1
 8.9375 714.083007812 21.2412109375 692.678710938 33 677 c 1
 36 657 38 647 41 646 c 257
 39 647 36 636 34 615 c 1
 27 609 21 603 16 593 c 1
 4 589 -4 583 -10 578 c 1
 -33 577 -45 576 -44 574 c 1
 -44 604 l 1
 -43 609 -31 612 -7 615 c 1
 -4 637 1 647 7 647 c 1
 4 647 1 656 -2 672 c 1
 -14.1689453125 688.224609375 -25.7529296875 709.129882812 -37 726 c 1
 -40 747 -42 758 -45 757 c 1
 -43 758 -41 768 -39 787 c 1
 -32 792 -26 800 -21 810 c 1
 -9 814 0 819 6 824 c 1
 27 825 38 827 39 829 c 1
 39 800 l 1
 37 795 25 791 2 788 c 1
 -1 767 -5 756 -11 756 c 1
EndSplineSet
MultipleSubs2: "Multiple Substitution lookup 68 subtable" denpabu aibu
Ligature2: "zlmVV subtable" abu ibu
LCarets2: 1 0
EndChar

StartChar: eibu
Encoding: 60 60839 59
Width: 0
VWidth: 988
GlyphClass: 4
Flags: W
HStem: 692 32<-54.841 54.8753>
VStem: -118 34<602 662.144> 84 34<602 663.775>
AnchorPoint: "Top" 0 661 mark 0
LayerCount: 2
Fore
SplineSet
-118 602 m 1
 -118 679.833594648 -79.2892015542 724 -0 724 c 256
 43.7958895909 724 71.7344311139 711.546806416 91 688 c 0
 108.115097091 667.081548 118 638.818753643 118 602 c 1
 84 602 l 1
 84 658.801213269 57.5478012123 692 -0 692 c 256
 -57.5499091297 692 -84 658.805266695 -84 602 c 1
 -118 602 l 1
EndSplineSet
MultipleSubs2: "Multiple Substitution lookup 69 subtable" denpabu eibu
Ligature2: "zlmVV subtable" ebu ibu
LCarets2: 1 0
EndChar

StartChar: oibu
Encoding: 61 60840 60
Width: 0
VWidth: 988
GlyphClass: 4
Flags: W
HStem: 630 1<-41 34>
VStem: -98 30<580 625.459> 66 25<640.727 684>
AnchorPoint: "Top" 0 657 mark 0
LayerCount: 2
Fore
SplineSet
38 596 m 0
 2.2465297672 596 -8.17055010952 630 -41 630 c 0
 -58 630 -68 609 -68 580 c 1
 -98 580 l 1
 -98 591 -96 605 -93 624 c 0
 -87 655 -66 694 -29 741 c 0
 -15 760 -5 772 -0 776 c 1
 27 751 l 1
 -1 722 -28 688 -50 658 c 1
 -25 672 11 631 34 631 c 0
 54 631 65 652 66 684 c 1
 91 684 l 1
 90 636 69 596 38 596 c 0
EndSplineSet
MultipleSubs2: "Multiple Substitution lookup 70 subtable" denpabu oibu
Ligature2: "zlmVV subtable" obu ibu
LCarets2: 1 0
EndChar

StartChar: aubu
Encoding: 62 60841 61
Width: 0
VWidth: 988
GlyphClass: 4
Flags: W
HStem: 645 83<-36.9465 15.5343>
AnchorPoint: "Top" 0 658 mark 0
LayerCount: 2
Fore
SplineSet
-25 534 m 1
 -28.7059055001 537.176490429 -35 540.547867345 -35 547 c 0
 -35 549 -34 551 -32 554 c 0
 -9.20886948431 576.791130516 9.35372453538 608.122347212 16 648 c 1
 11 646 6 645 -1 645 c 0
 -25.3877562542 645 -42 662.346740916 -42 687 c 0
 -42 709.845076922 -23.7983365648 728 0 728 c 0
 31.1469842489 728 43 702.817225443 43 670 c 0
 43 614.133036271 8.10523858159 563.952358717 -25 534 c 1
EndSplineSet
MultipleSubs2: "Multiple Substitution lookup 71 subtable" denpabu aubu
Ligature2: "zlmVV subtable" abu ubu
LCarets2: 1 0
EndChar

StartChar: iy
Encoding: 63 60842 62
Width: 495
VWidth: 988
GlyphClass: 2
Flags: W
HStem: 0 21G<19 59.5821 434.787 476> 472 20G<218.545 276.455>
DStem2: 19 0 72 12 0.389396 0.921071<9.63754 496.156> 268 492 259 400 0.389396 -0.921071<37.6153 524.706>
AnchorPoint: "Top" 245 661 basechar 0
AnchorPoint: "Bottom" 248 0 basechar 0
LayerCount: 2
Fore
SplineSet
19 0 m 1
 227 492 l 1
 268 492 l 1
 476 0 l 1
 439 0 l 2
 430.574141421 0 424.03182438 5.90452685968 422 12 c 2
 259 400 l 2
 254 414 250 429 247 443 c 1
 244 429 240 414 235 400 c 2
 72 12 l 2
 68.6357670887 5.27153417743 64.1642356818 0 55 0 c 2
 19 0 l 1
EndSplineSet
EndChar

StartChar: uy
Encoding: 64 60843 63
Width: 495
VWidth: 988
GlyphClass: 2
Flags: W
HStem: 0 21G<218.545 276.455> 472 20G<19 60.4762 435.219 476>
DStem2: 236 92 19 492 0.389396 -0.921071<-443.472 43.6186> 261 92 476 492 0.389396 0.921071<-44.0077 443.168>
AnchorPoint: "Top" 245 661 basechar 0
AnchorPoint: "Bottom" 248 0 basechar 0
LayerCount: 2
Fore
SplineSet
476 492 m 1
 268 0 l 1
 227 0 l 1
 19 492 l 1
 56 492 l 2
 64.9523979237 492 71.8465635494 486.460309352 74 480 c 2
 236 92 l 2
 241 78 245 63 248 49 c 1
 251 63 256 78 261 92 c 2
 424 480 l 2
 427.475787462 486.951574924 430.438125632 492 440 492 c 2
 476 492 l 1
EndSplineSet
EndChar

StartChar: seplimeabu
Encoding: 69 60848 68
Width: 549
VWidth: 988
GlyphClass: 3
Flags: W
HStem: 0 21G<70 120> 464 37<120 487>
VStem: 70 50<0 464>
AnchorPoint: "Bottom" 305 0 basechar 0
LayerCount: 2
Fore
SplineSet
487 464 m 1
 120 464 l 1
 120 0 l 1
 70 0 l 1
 70 501 l 1
 487 501 l 1
 487 464 l 1
EndSplineSet
Ligature2: "zlmSF subtable" slakabu seplimeabu
LCarets2: 1 0
EndChar

StartChar: seplimeebu
Encoding: 70 60849 69
Width: 549
VWidth: 988
GlyphClass: 3
Flags: W
HStem: 0 21G<70 120> 240 36<120 487> 481 20G<70 120>
VStem: 70 50<0 240 276 501>
AnchorPoint: "Bottom" 307 0 basechar 0
LayerCount: 2
Fore
SplineSet
487 240 m 1
 120 240 l 1
 120 0 l 1
 70 0 l 1
 70 501 l 1
 120 501 l 1
 120 276 l 1
 487 276 l 1
 487 240 l 1
EndSplineSet
Ligature2: "zlmSF subtable" slakabu seplimeebu
LCarets2: 1 0
EndChar

StartChar: seplimeibu
Encoding: 71 60850 70
Width: 549
VWidth: 988
GlyphClass: 3
Flags: W
HStem: 0 21G<70 125 436 487> 464 37<125 436>
VStem: 70 55<0 464> 436 51<0 464>
AnchorPoint: "Bottom" 285 0 basechar 0
LayerCount: 2
Fore
SplineSet
125 464 m 1
 125 0 l 1
 70 0 l 1
 70 167 70 334 70 501 c 1
 487 501 l 1
 487 334 487 167 487 0 c 1
 436 0 l 1
 436 464 l 1
 125 464 l 1
EndSplineSet
Ligature2: "zlmSF subtable" slakabu seplimeibu
LCarets2: 1 0
EndChar

StartChar: seplimeobu
Encoding: 72 60851 71
Width: 549
VWidth: 988
GlyphClass: 3
Flags: W
HStem: 0 37<70 436> 481 20G<436 487>
VStem: 436 51<37 501>
AnchorPoint: "Bottom" 278 0 basechar 0
LayerCount: 2
Fore
SplineSet
70 37 m 5
 436 37 l 5
 436 501 l 1
 487 501 l 1
 487 0 l 1
 70 0 l 1
 70 37 l 5
EndSplineSet
Ligature2: "zlmSF subtable" slakabu seplimeobu
LCarets2: 1 0
EndChar

StartChar: seplimeubu
Encoding: 73 60852 72
Width: 549
VWidth: 988
GlyphClass: 3
Flags: W
HStem: 0 37<120 436> 481 20G<70 120 436 487>
VStem: 70 50<37 501> 436 51<37 501>
AnchorPoint: "Bottom" 286 0 basechar 0
LayerCount: 2
Fore
SplineSet
120 37 m 1
 436 37 l 1
 436 501 l 1
 487 501 l 1
 487 334 487 167 487 0 c 1
 70 0 l 1
 70 167 70 334 70 501 c 1
 120 501 l 1
 120 37 l 1
EndSplineSet
Ligature2: "zlmSF subtable" slakabu seplimeubu
LCarets2: 1 0
EndChar

StartChar: seplimeybu
Encoding: 74 60853 73
Width: 549
VWidth: 988
GlyphClass: 3
Flags: W
HStem: 0 21G<248 298> 240 36<68 248 298 481> 481 20G<248 298>
VStem: 248 50<0 239 276 501>
AnchorPoint: "Bottom" 274 0 basechar 0
LayerCount: 2
Fore
SplineSet
481 240 m 1
 298 240 l 1
 298 0 l 1
 248 0 l 1
 248 239 l 1
 68 239 l 1
 68 276 l 1
 248 276 l 1
 248 501 l 1
 298 501 l 1
 298 276 l 1
 481 276 l 1
 481 240 l 1
EndSplineSet
Ligature2: "zlmSF subtable" slakabu seplimeybu
LCarets2: 1 0
EndChar

StartChar: seplimeaibu
Encoding: 75 60854 74
Width: 549
VWidth: 988
GlyphClass: 3
Flags: W
HStem: 0 37<120 487> 464 37<120 487>
VStem: 70 50<37 464>
AnchorPoint: "LigaBottom" 287 0 basechar 0
LayerCount: 2
Fore
SplineSet
487 37 m 1
 487 0 l 1
 348 -0 209 0 70 0 c 1
 70 501 l 1
 209 501 348 501 487 501 c 1
 487 464 l 1
 120 464 l 1
 120 37 l 1
 487 37 l 1
EndSplineSet
Ligature2: "zlmSFF subtable" slakabu seplimeaibu
Ligature2: "zlmFF subtable" seplimeabu seplimeibu
LCarets2: 1 0
EndChar

StartChar: seplimeeibu
Encoding: 76 60855 75
Width: 420
VWidth: 988
GlyphClass: 3
Flags: W
HStem: -8 35<124.338 277.146> 464 36<147.129 298.679>
VStem: 55 45<320.142 425.111> 329 44<69.8706 189.028>
DStem2: 186 287 142 257 0.95448 -0.298275<-83.7521 152.547>
LayerCount: 2
Fore
SplineSet
351 431 m 2
 348 426 345 424 340 424 c 0
 336 424 332 426 326 430 c 0
 298.458485282 448.361009812 267.577263591 464 218 464 c 0
 164.371746267 464 126.862296379 440.580876694 108 406 c 0
 102 395 100 383 100 370 c 0
 100 319.425757822 146.313451549 299.402046391 186 287 c 0
 219.458783215 276.544130245 255.136623641 264.948766135 287 253 c 0
 331.267506258 236.399685153 373 204.093875665 373 144 c 0
 373 68.5160907029 330.145574287 25.3887902047 274 4 c 0
 253 -4 229 -8 201 -8 c 0
 129.539667834 -8 82.4064044828 17.4342359654 44 52 c 1
 55 69 l 2
 58.4300042574 74.1450063861 61.2799535674 77 69 77 c 0
 73 77 79 74 85 69 c 0
 112.487434085 46.0938049294 149.795214154 27 203 27 c 0
 276.562070035 27 329 64.3392749131 329 136 c 0
 329 189.156666107 283.524402797 211.023624126 242 224 c 0
 209.371732053 234.196333733 173.673633484 245.122387444 142 257 c 0
 96.6842143816 273.993419607 55 305.386650552 55 367 c 0
 55 430.710678306 100.896213346 471.813674671 150 489 c 0
 170 496 193 500 218 500 c 0
 283.416214384 500 325.741042753 480.403222655 361 447 c 1
 351 431 l 2
EndSplineSet
Ligature2: "zlmSFF subtable" slakabu seplimeeibu
Ligature2: "zlmFF subtable" seplimeebu seplimeibu
EndChar

StartChar: seplimeoibu
Encoding: 77 60856 76
Width: 549
VWidth: 988
GlyphClass: 3
Flags: W
HStem: 0 37<70 436> 464 37<70 436>
VStem: 436 51<37 464>
AnchorPoint: "Bottom" 283 0 basechar 0
LayerCount: 2
Fore
SplineSet
70 37 m 1
 436 37 l 1
 436 464 l 1
 70 464 l 1
 70 501 l 1
 209 501 348 501 487 501 c 1
 487 0 l 1
 348 -0 209 0 70 0 c 1
 70 37 l 1
EndSplineSet
Ligature2: "zlmSFF subtable" slakabu seplimeoibu
Ligature2: "zlmFF subtable" seplimeobu seplimeibu
LCarets2: 1 0
EndChar

StartChar: seplimeaubu
Encoding: 78 60857 77
Width: 463
VWidth: 988
GlyphClass: 3
Flags: W
HStem: 0 21G<21 66 392.211 442> 472 20G<28 78.2455 387.533 435>
DStem2: 21 0 81 12 0.594908 0.803794<15.1887 308.955 348.935 627.369> 89 482 28 492 0.590856 -0.806777<-27.9076 251.144 286.619 581.236>
LayerCount: 2
Fore
SplineSet
442 0 m 1
 397 0 l 2
 387.421797715 0 383.737174295 6.39423855675 380 12 c 2
 230 230 l 1
 229 224 227 219 223 213 c 2
 81 12 l 2
 79 9 75 7 73 4 c 0
 71 1 68 0 64 0 c 2
 21 0 l 1
 200 252 l 1
 28 492 l 1
 73 492 l 2
 83.4910297806 492 84.8973098831 488.154035175 89 482 c 2
 234 274 l 1
 236.159937071 280.479811214 238.331202298 285.496803446 242 291 c 2
 377 481 l 2
 380.774983997 486.662475995 383.065191059 492 392 492 c 2
 435 492 l 1
 263 255 l 1
 442 0 l 1
EndSplineSet
Ligature2: "zlmSFF subtable" slakabu seplimeaubu
Ligature2: "zlmFF subtable" seplimeabu seplimeubu
EndChar

StartChar: denpabu.cas
Encoding: 85 -1 84
Width: 246
VWidth: 988
GlyphClass: 3
Flags: W
HStem: 343 56<52.189 250.279> 472 20G<331 364>
VStem: 43 321
AnchorPoint: "Top" 110 661 basechar 0
AnchorPoint: "Bottom" 110 0 basechar 0
LayerCount: 2
Fore
SplineSet
74 399 m 0
 94.8488042796 399 122.847494903 395 148 395 c 0
 195.694709385 395 228.398122591 403.959249036 261 417 c 0
 275 424 292 431 300 444 c 0
 317 465 329 481 333 492 c 1
 364 477 l 1
 333 415 l 1
 320 397 292 382 249 364 c 0
 216 350 175 343 126 343 c 0
 96.0461471667 343 66.2338191226 346.663503876 43 353 c 1
 52 390 l 1
 56 396 62 399 74 399 c 0
EndSplineSet
LCarets2: 2 0 0
EndChar

StartChar: smajibu.init
Encoding: 88 -1 87
Width: 417
VWidth: 988
GlyphClass: 2
Flags: W
HStem: 273 40<68 427>
LayerCount: 2
Fore
SplineSet
68 313 m 1
 427 313 l 1
 427 273 l 1
 68 273 l 1
 68 313 l 1
EndSplineSet
EndChar

StartChar: smajibu.medi
Encoding: 89 -1 88
Width: 417
VWidth: 988
GlyphClass: 2
Flags: W
HStem: 273 40<-10 427>
LayerCount: 2
Fore
SplineSet
-10 313 m 1
 427 313 l 1
 427 273 l 1
 -10 273 l 1
 -10 313 l 1
EndSplineSet
EndChar

StartChar: smajibu.fina
Encoding: 90 -1 89
Width: 417
VWidth: 988
GlyphClass: 2
Flags: W
HStem: 273 40<-10 298>
VStem: -10 308<273 313>
LayerCount: 2
Fore
SplineSet
-10 313 m 1
 298 313 l 1
 298 273 l 1
 -10 273 l 1
 -10 313 l 1
EndSplineSet
EndChar

StartChar: yhy.cas
Encoding: 104 -1 100
Width: 237
VWidth: 988
Flags: W
HStem: 0 21G<87 133> 472 20G<87 133>
VStem: 87 46<0 492>
AnchorPoint: "Top" 110 661 basechar 0
AnchorPoint: "Bottom" 110 0 basechar 0
LayerCount: 2
Fore
SplineSet
133 492 m 5
 133 0 l 5
 87 0 l 1
 87 492 l 1
 133 492 l 5
EndSplineSet
EndChar
